<svg width="54" height="54" viewBox="0 0 54 54" fill="none" xmlns="http://www.w3.org/2000/svg">
<path d="M31.5 42.75C39.9847 42.75 44.2282 42.75 46.863 40.113C49.5 37.4782 49.5 33.2347 49.5 24.75C49.5 16.2653 49.5 12.0217 46.863 9.387C44.2282 6.75 39.9847 6.75 31.5 6.75H22.5C14.0153 6.75 9.77175 6.75 7.137 9.387C4.5 12.0217 4.5 16.2653 4.5 24.75C4.5 33.2347 4.5 37.4782 7.137 40.113C8.60625 41.5845 10.575 42.2348 13.5 42.5205" stroke="#FF333B" stroke-width="2" stroke-linecap="round" stroke-linejoin="round"/>
<path d="M31.4998 42.75C28.7188 42.75 25.6543 43.875 22.8576 45.3263C18.3621 47.6595 16.1143 48.8273 15.0073 48.0825C13.9003 47.34 14.1096 45.0337 14.5303 40.4235L14.6248 39.375" stroke="#FF333B" stroke-width="2" stroke-linecap="round"/>
<path d="M33.4678 31.2754C34.5322 32.0371 35.6895 32.6426 36.9395 33.0918L35.3428 36.1533C34.6885 35.958 34.0488 35.6895 33.4238 35.3477C33.2871 35.2793 32.3252 34.6445 30.5381 33.4434C29.1318 34.0586 27.5742 34.3662 25.8652 34.3662C22.5645 34.3662 19.9766 33.3945 18.1016 31.4512C16.2363 29.5078 15.3037 26.7783 15.3037 23.2627C15.3037 19.7568 16.2412 17.0322 18.1162 15.0889C19.9912 13.1357 22.5352 12.1592 25.748 12.1592C28.9316 12.1592 31.4561 13.1357 33.3213 15.0889C35.1865 17.0322 36.1191 19.7568 36.1191 23.2627C36.1191 25.1182 35.8604 26.749 35.3428 28.1553C34.9521 29.2295 34.3271 30.2695 33.4678 31.2754ZM29.9814 28.8291C30.5381 28.1748 30.9531 27.3838 31.2266 26.4561C31.5098 25.5283 31.6514 24.4639 31.6514 23.2627C31.6514 20.7822 31.1045 18.9316 30.0107 17.7109C28.917 16.4805 27.4863 15.8652 25.7188 15.8652C23.9512 15.8652 22.5156 16.4805 21.4121 17.7109C20.3184 18.9414 19.7715 20.792 19.7715 23.2627C19.7715 25.7725 20.3184 27.6523 21.4121 28.9023C22.5156 30.1426 23.9072 30.7627 25.5869 30.7627C26.2119 30.7627 26.8027 30.6602 27.3594 30.4551C26.4805 29.8789 25.5869 29.4297 24.6787 29.1074L25.8945 26.6318C27.3203 27.1201 28.6826 27.8525 29.9814 28.8291Z" fill="#FF333B"/>
</svg>
