<svg width="13" height="14" viewBox="0 0 13 14" fill="none" xmlns="http://www.w3.org/2000/svg">
<path d="M11.5141 6.39483C11.7709 6.75649 11.7709 7.24474 11.5141 7.60583C10.7054 8.74274 8.76515 11.0837 6.4999 11.0837C4.23465 11.0837 2.2944 8.74274 1.4857 7.60583C1.36078 7.43265 1.29297 7.21961 1.29297 7.00033C1.29297 6.78104 1.36078 6.568 1.4857 6.39483C2.2944 5.25791 4.23465 2.91699 6.4999 2.91699C8.76515 2.91699 10.7054 5.25791 11.5141 6.39483V6.39483Z" stroke="white" stroke-width="1.29475" stroke-linecap="round" stroke-linejoin="round"/>
<path d="M6.5 8.75C7.39746 8.75 8.125 7.9665 8.125 7C8.125 6.0335 7.39746 5.25 6.5 5.25C5.60254 5.25 4.875 6.0335 4.875 7C4.875 7.9665 5.60254 8.75 6.5 8.75Z" stroke="white" stroke-width="1.29475" stroke-linecap="round" stroke-linejoin="round"/>
</svg>
