<svg width="9" height="9" viewBox="0 0 9 9" fill="none" xmlns="http://www.w3.org/2000/svg">
<g clip-path="url(#clip0_686_2785)">
<path d="M4.49999 8.4993C4.37186 8.4993 4.24834 8.45288 4.15207 8.36856C3.78849 8.05064 3.43796 7.75188 3.12869 7.48835L3.12711 7.48698C2.2204 6.71429 1.43742 6.04701 0.892637 5.38969C0.283653 4.65484 0 3.9581 0 3.19695C0 2.45744 0.253578 1.77518 0.713973 1.27579C1.17986 0.770485 1.81913 0.492188 2.51422 0.492188C3.03373 0.492188 3.50951 0.656433 3.92829 0.980324C4.13964 1.14381 4.33121 1.3439 4.49999 1.57729C4.66884 1.3439 4.86034 1.14381 5.07176 0.980324C5.49054 0.656433 5.96632 0.492188 6.48583 0.492188C7.18086 0.492188 7.82019 0.770485 8.28608 1.27579C8.74647 1.77518 8.99998 2.45744 8.99998 3.19695C8.99998 3.9581 8.7164 4.65484 8.10741 5.38962C7.56263 6.04701 6.77972 6.71423 5.87314 7.48684C5.56333 7.75079 5.21225 8.05003 4.84785 8.3687C4.75165 8.45288 4.62805 8.4993 4.49999 8.4993ZM2.51422 1.01939C1.96813 1.01939 1.46647 1.23734 1.10151 1.63312C0.731139 2.03487 0.527137 2.59023 0.527137 3.19695C0.527137 3.83711 0.765059 4.40964 1.29851 5.0533C1.81411 5.67547 2.58103 6.32902 3.46899 7.08577L3.47064 7.08714C3.78107 7.35171 4.13298 7.65163 4.49924 7.97189C4.86769 7.65102 5.22014 7.35061 5.53119 7.08563C6.41909 6.32888 7.18594 5.67547 7.70154 5.0533C8.23492 4.40964 8.47285 3.83711 8.47285 3.19695C8.47285 2.59023 8.26884 2.03487 7.89847 1.63312C7.53358 1.23734 7.03185 1.01939 6.48583 1.01939C6.0858 1.01939 5.71851 1.14656 5.39421 1.39732C5.1052 1.6209 4.90387 1.90352 4.78584 2.10127C4.72514 2.20296 4.6183 2.26366 4.49999 2.26366C4.38168 2.26366 4.27484 2.20296 4.21414 2.10127C4.09618 1.90352 3.89485 1.6209 3.60577 1.39732C3.28147 1.14656 2.91419 1.01939 2.51422 1.01939Z" fill="white"/>
</g>
<defs>
<clipPath id="clip0_686_2785">
<rect width="9" height="9" fill="white"/>
</clipPath>
</defs>
</svg>
