<svg width="9" height="9" viewBox="0 0 9 9" fill="none" xmlns="http://www.w3.org/2000/svg">
<g clip-path="url(#clip0_686_2765)">
<path fill-rule="evenodd" clip-rule="evenodd" d="M7.40625 6.5625C7.2322 6.5625 7.06528 6.63164 6.94221 6.75471C6.81914 6.87778 6.75 7.0447 6.75 7.21875C6.75 7.3928 6.81914 7.55972 6.94221 7.68279C7.06528 7.80586 7.2322 7.875 7.40625 7.875C7.5803 7.875 7.74722 7.80586 7.87029 7.68279C7.99336 7.55972 8.0625 7.3928 8.0625 7.21875C8.0625 7.0447 7.99336 6.87778 7.87029 6.75471C7.74722 6.63164 7.5803 6.5625 7.40625 6.5625ZM6.1875 7.21875C6.1875 6.89552 6.3159 6.58552 6.54446 6.35696C6.77302 6.1284 7.08302 6 7.40625 6C7.72948 6 8.03948 6.1284 8.26804 6.35696C8.4966 6.58552 8.625 6.89552 8.625 7.21875C8.625 7.54198 8.4966 7.85198 8.26804 8.08054C8.03948 8.3091 7.72948 8.4375 7.40625 8.4375C7.08302 8.4375 6.77302 8.3091 6.54446 8.08054C6.3159 7.85198 6.1875 7.54198 6.1875 7.21875Z" fill="white"/>
<path fill-rule="evenodd" clip-rule="evenodd" d="M5.21437 0.645C5.26704 0.697735 5.29663 0.769219 5.29663 0.84375C5.29663 0.918281 5.26704 0.989765 5.21437 1.0425L4.75687 1.5H6.28125C6.65421 1.5 7.0119 1.64816 7.27562 1.91188C7.53934 2.1756 7.6875 2.53329 7.6875 2.90625V6.1875C7.6875 6.26209 7.65787 6.33363 7.60512 6.38637C7.55238 6.43912 7.48084 6.46875 7.40625 6.46875C7.33166 6.46875 7.26012 6.43912 7.20738 6.38637C7.15463 6.33363 7.125 6.26209 7.125 6.1875V2.90625C7.125 2.79545 7.10318 2.68573 7.06077 2.58336C7.01837 2.48099 6.95622 2.38798 6.87787 2.30963C6.79952 2.23128 6.70651 2.16913 6.60414 2.12673C6.50177 2.08432 6.39205 2.0625 6.28125 2.0625H4.75725L5.21475 2.52C5.26596 2.57307 5.29427 2.64413 5.2936 2.71787C5.29292 2.79161 5.26331 2.86214 5.21114 2.91426C5.15897 2.96638 5.08841 2.99593 5.01467 2.99653C4.94093 2.99714 4.86989 2.96876 4.81687 2.9175L3.87937 1.98C3.82671 1.92727 3.79712 1.85578 3.79712 1.78125C3.79712 1.70672 3.82671 1.63523 3.87937 1.5825L4.81687 0.645C4.86961 0.592331 4.94109 0.562747 5.01562 0.562747C5.09016 0.562747 5.16164 0.592331 5.21437 0.645ZM1.59375 2.4375C1.67993 2.4375 1.76527 2.42053 1.84489 2.38755C1.92451 2.35457 1.99685 2.30623 2.05779 2.24529C2.11873 2.18435 2.16707 2.11201 2.20005 2.03239C2.23303 1.95277 2.25 1.86743 2.25 1.78125C2.25 1.69507 2.23303 1.60973 2.20005 1.53011C2.16707 1.45049 2.11873 1.37815 2.05779 1.31721C1.99685 1.25627 1.92451 1.20793 1.84489 1.17495C1.76527 1.14197 1.67993 1.125 1.59375 1.125C1.4197 1.125 1.25278 1.19414 1.12971 1.31721C1.00664 1.44028 0.9375 1.6072 0.9375 1.78125C0.9375 1.9553 1.00664 2.12222 1.12971 2.24529C1.25278 2.36836 1.4197 2.4375 1.59375 2.4375ZM2.8125 1.78125C2.8125 2.10448 2.6841 2.41448 2.45554 2.64304C2.22698 2.8716 1.91698 3 1.59375 3C1.27052 3 0.960523 2.8716 0.731964 2.64304C0.503404 2.41448 0.375 2.10448 0.375 1.78125C0.375 1.45802 0.503404 1.14802 0.731964 0.919464C0.960523 0.690904 1.27052 0.5625 1.59375 0.5625C1.91698 0.5625 2.22698 0.690904 2.45554 0.919464C2.6841 1.14802 2.8125 1.45802 2.8125 1.78125Z" fill="white"/>
<path fill-rule="evenodd" clip-rule="evenodd" d="M3.78563 8.355C3.73296 8.30227 3.70337 8.23078 3.70337 8.15625C3.70337 8.08172 3.73296 8.01023 3.78563 7.9575L4.24313 7.5H2.71875C2.34579 7.5 1.9881 7.35184 1.72438 7.08812C1.46066 6.8244 1.3125 6.46671 1.3125 6.09375V2.8125C1.3125 2.73791 1.34213 2.66637 1.39488 2.61363C1.44762 2.56088 1.51916 2.53125 1.59375 2.53125C1.66834 2.53125 1.73988 2.56088 1.79262 2.61363C1.84537 2.66637 1.875 2.73791 1.875 2.8125V6.09375C1.875 6.31753 1.9639 6.53214 2.12213 6.69037C2.28036 6.84861 2.49497 6.9375 2.71875 6.9375H4.24275L3.78525 6.48C3.7584 6.45404 3.73699 6.423 3.72227 6.38868C3.70754 6.35436 3.6998 6.31745 3.69949 6.2801C3.69919 6.24276 3.70632 6.20573 3.72048 6.17117C3.73464 6.13661 3.75554 6.10522 3.78195 6.07883C3.80837 6.05243 3.83979 6.03156 3.87436 6.01744C3.90893 6.00331 3.94597 5.99621 3.98331 5.99656C4.02065 5.9969 4.05756 6.00467 4.09186 6.01943C4.12617 6.03419 4.15719 6.05563 4.18313 6.0825L5.12063 7.02C5.17329 7.07273 5.20288 7.14422 5.20288 7.21875C5.20288 7.29328 5.17329 7.36477 5.12063 7.4175L4.18313 8.355C4.13039 8.40767 4.05891 8.43725 3.98438 8.43725C3.90984 8.43725 3.83836 8.40767 3.78563 8.355Z" fill="white"/>
</g>
<defs>
<clipPath id="clip0_686_2765">
<rect width="9" height="9" fill="white"/>
</clipPath>
</defs>
</svg>
