<svg width="28" height="28" viewBox="0 0 28 28" fill="none" xmlns="http://www.w3.org/2000/svg">
<path d="M25.2 10.3218V20.2996C25.2 21.2279 24.8313 22.1181 24.1749 22.7745C23.5185 23.4309 22.6283 23.7996 21.7 23.7996H6.30005C5.37179 23.7996 4.48155 23.4309 3.82518 22.7745C3.1688 22.1181 2.80005 21.2279 2.80005 20.2996V10.3218L13.6444 16.703C13.7522 16.7665 13.875 16.8001 14 16.8001C14.1251 16.8001 14.2479 16.7665 14.3556 16.703L25.2 10.3218ZM21.7 5.59961C22.5613 5.59947 23.3923 5.91686 24.0341 6.49105C24.676 7.06523 25.0836 7.85591 25.179 8.71181L14 15.2876L2.82105 8.71181C2.91647 7.85591 3.3241 7.06523 3.96596 6.49105C4.60782 5.91686 5.43884 5.59947 6.30005 5.59961H21.7Z" fill="#70C7F2"/>
</svg>
