<svg width="22" height="22" viewBox="0 0 22 22" fill="none" xmlns="http://www.w3.org/2000/svg">
<path d="M21.1402 3.4375H5.15586V0.859375C5.15586 0.384742 4.77112 0 4.29649 0H0.859375C0.384742 0 0 0.384742 0 0.859375C0 1.33401 0.384742 1.71875 0.859375 1.71875H3.43711V14.2656C3.43711 14.7403 3.82186 15.125 4.29649 15.125H18.5842C18.9766 15.125 19.3191 14.8592 19.4166 14.4791L21.9727 4.5103C22.1119 3.9673 21.7012 3.4375 21.1402 3.4375ZM17.9173 13.4062H5.15586V5.15625H20.0327L17.9173 13.4062ZM6.01524 16.8438C4.59366 16.8438 3.43711 18.0003 3.43711 19.4219C3.43711 20.8435 4.59366 22 6.01524 22C7.43682 22 8.59336 20.8435 8.59336 19.4219C8.59336 18.0003 7.43682 16.8438 6.01524 16.8438ZM6.01524 20.2812C5.54138 20.2812 5.15586 19.8957 5.15586 19.4219C5.15586 18.948 5.54138 18.5625 6.01524 18.5625C6.4891 18.5625 6.87461 18.948 6.87461 19.4219C6.87461 19.8957 6.4891 20.2812 6.01524 20.2812ZM15.1715 16.8438C13.7499 16.8438 12.5934 18.0003 12.5934 19.4219C12.5934 20.8435 13.7499 22 15.1715 22C16.5931 22 17.7496 20.8435 17.7496 19.4219C17.7496 18.0003 16.5931 16.8438 15.1715 16.8438ZM15.1715 20.2812C14.6976 20.2812 14.3121 19.8957 14.3121 19.4219C14.3121 18.948 14.6976 18.5625 15.1715 18.5625C15.6454 18.5625 16.0309 18.948 16.0309 19.4219C16.0309 19.8957 15.6454 20.2812 15.1715 20.2812Z" fill="black" fill-opacity="0.97"/>
</svg>
