<svg width="11" height="10" viewBox="0 0 11 10" fill="none" xmlns="http://www.w3.org/2000/svg">
<path d="M2.12096 0.482422H2.11986C1.78502 0.482422 1.46925 0.612611 1.23095 0.848877C0.991856 1.08579 0.860108 1.40013 0.860108 1.73404C0.859943 2.0753 0.994514 2.39512 1.2383 2.63421C1.47473 2.86579 1.79721 2.99583 2.10985 2.98831C2.11893 2.98847 2.12801 2.98862 2.13723 2.98862C2.45064 2.98862 2.76093 2.86094 2.99204 2.63563C3.23566 2.39826 3.37023 2.07968 3.37102 1.73857C3.37181 1.40497 3.24131 1.09015 3.00394 0.851848C2.76672 0.613858 2.45315 0.482734 2.12096 0.482422Z" fill="white"/>
<path d="M2.73793 3.30078H1.47286C1.22141 3.30078 1.01674 3.51185 1.01674 3.77113V9.24669C1.01674 9.50049 1.23173 9.71486 1.48615 9.71486H2.73793C2.99235 9.71486 3.20735 9.50472 3.20735 9.25625V3.7702C3.20735 3.51578 2.99237 3.30078 2.73793 3.30078Z" fill="white"/>
<path d="M8.07829 3.14453H7.7486C7.14102 3.14453 6.55816 3.40333 6.18028 3.83081V3.61395C6.18028 3.45887 6.02224 3.301 5.86733 3.301H4.30262C4.15789 3.301 3.98967 3.4293 3.98967 3.59469V9.43312C3.98967 9.59913 4.15459 9.71493 4.30262 9.71508L6.02381 9.71555C6.17184 9.71555 6.33676 9.59976 6.33676 9.43359V6.06053C6.33676 5.5517 6.71402 5.14877 7.19563 5.1433C7.44051 5.13782 7.67192 5.23436 7.84514 5.4079C7.98832 5.55107 8.05794 5.76011 8.05794 6.04709V9.40341C8.05794 9.55848 8.21598 9.71636 8.37089 9.71636H9.9356C10.0905 9.71636 10.2485 9.55848 10.2485 9.40341V5.36486C10.2486 4.11981 9.29518 3.14453 8.07829 3.14453Z" fill="white"/>
</svg>
