<svg width="20" height="20" viewBox="0 0 20 20" fill="none" xmlns="http://www.w3.org/2000/svg">
<path fill-rule="evenodd" clip-rule="evenodd" d="M4.44444 1.11111H1.11111V4.44444H4.44444V1.11111ZM1.11111 0C0.816426 0 0.533811 0.117063 0.325437 0.325437C0.117063 0.533811 0 0.816426 0 1.11111V4.44444C0 4.73913 0.117063 5.02174 0.325437 5.23012C0.533811 5.43849 0.816426 5.55556 1.11111 5.55556H4.44444C4.73913 5.55556 5.02174 5.43849 5.23012 5.23012C5.43849 5.02174 5.55556 4.73913 5.55556 4.44444V1.11111C5.55556 0.816426 5.43849 0.533811 5.23012 0.325437C5.02174 0.117063 4.73913 0 4.44444 0H1.11111Z" fill="#2FA1D9"/>
<path fill-rule="evenodd" clip-rule="evenodd" d="M4.44444 8.33377H1.11111V11.6671H4.44444V8.33377ZM1.11111 7.22266C0.816426 7.22266 0.533811 7.33972 0.325437 7.54809C0.117063 7.75647 0 8.03908 0 8.33377V11.6671C0 11.9618 0.117063 12.2444 0.325437 12.4528C0.533811 12.6611 0.816426 12.7782 1.11111 12.7782H4.44444C4.73913 12.7782 5.02174 12.6611 5.23012 12.4528C5.43849 12.2444 5.55556 11.9618 5.55556 11.6671V8.33377C5.55556 8.03908 5.43849 7.75647 5.23012 7.54809C5.02174 7.33972 4.73913 7.22266 4.44444 7.22266H1.11111Z" fill="#2FA1D9"/>
<path fill-rule="evenodd" clip-rule="evenodd" d="M4.44444 15.5554H1.11111V18.8888H4.44444V15.5554ZM1.11111 14.4443C0.816426 14.4443 0.533811 14.5614 0.325437 14.7698C0.117063 14.9781 0 15.2608 0 15.5554V18.8888C0 19.1835 0.117063 19.4661 0.325437 19.6745C0.533811 19.8828 0.816426 19.9999 1.11111 19.9999H4.44444C4.73913 19.9999 5.02174 19.8828 5.23012 19.6745C5.43849 19.4661 5.55556 19.1835 5.55556 18.8888V15.5554C5.55556 15.2608 5.43849 14.9781 5.23012 14.7698C5.02174 14.5614 4.73913 14.4443 4.44444 14.4443H1.11111Z" fill="#2FA1D9"/>
<path fill-rule="evenodd" clip-rule="evenodd" d="M11.6667 1.11111H8.3334V4.44444H11.6667V1.11111ZM8.3334 0C8.03872 0 7.7561 0.117063 7.54773 0.325437C7.33935 0.533811 7.22229 0.816426 7.22229 1.11111V4.44444C7.22229 4.73913 7.33935 5.02174 7.54773 5.23012C7.7561 5.43849 8.03872 5.55556 8.3334 5.55556H11.6667C11.9614 5.55556 12.244 5.43849 12.4524 5.23012C12.6608 5.02174 12.7778 4.73913 12.7778 4.44444V1.11111C12.7778 0.816426 12.6608 0.533811 12.4524 0.325437C12.244 0.117063 11.9614 0 11.6667 0H8.3334Z" fill="#2FA1D9"/>
<path fill-rule="evenodd" clip-rule="evenodd" d="M11.6667 8.33377H8.3334V11.6671H11.6667V8.33377ZM8.3334 7.22266C8.03872 7.22266 7.7561 7.33972 7.54773 7.54809C7.33935 7.75647 7.22229 8.03908 7.22229 8.33377V11.6671C7.22229 11.9618 7.33935 12.2444 7.54773 12.4528C7.7561 12.6611 8.03872 12.7782 8.3334 12.7782H11.6667C11.9614 12.7782 12.244 12.6611 12.4524 12.4528C12.6608 12.2444 12.7778 11.9618 12.7778 11.6671V8.33377C12.7778 8.03908 12.6608 7.75647 12.4524 7.54809C12.244 7.33972 11.9614 7.22266 11.6667 7.22266H8.3334Z" fill="#2FA1D9"/>
<path fill-rule="evenodd" clip-rule="evenodd" d="M11.6667 15.5554H8.3334V18.8888H11.6667V15.5554ZM8.3334 14.4443C8.03872 14.4443 7.7561 14.5614 7.54773 14.7698C7.33935 14.9781 7.22229 15.2608 7.22229 15.5554V18.8888C7.22229 19.1835 7.33935 19.4661 7.54773 19.6745C7.7561 19.8828 8.03872 19.9999 8.3334 19.9999H11.6667C11.9614 19.9999 12.244 19.8828 12.4524 19.6745C12.6608 19.4661 12.7778 19.1835 12.7778 18.8888V15.5554C12.7778 15.2608 12.6608 14.9781 12.4524 14.7698C12.244 14.5614 11.9614 14.4443 11.6667 14.4443H8.3334Z" fill="#2FA1D9"/>
<path fill-rule="evenodd" clip-rule="evenodd" d="M18.889 1.11111H15.5557V4.44444H18.889V1.11111ZM15.5557 0C15.261 0 14.9784 0.117063 14.77 0.325437C14.5616 0.533811 14.4446 0.816426 14.4446 1.11111V4.44444C14.4446 4.73913 14.5616 5.02174 14.77 5.23012C14.9784 5.43849 15.261 5.55556 15.5557 5.55556H18.889C19.1837 5.55556 19.4663 5.43849 19.6747 5.23012C19.8831 5.02174 20.0001 4.73913 20.0001 4.44444V1.11111C20.0001 0.816426 19.8831 0.533811 19.6747 0.325437C19.4663 0.117063 19.1837 0 18.889 0H15.5557Z" fill="#2FA1D9"/>
<path fill-rule="evenodd" clip-rule="evenodd" d="M18.889 8.33377H15.5557V11.6671H18.889V8.33377ZM15.5557 7.22266C15.261 7.22266 14.9784 7.33972 14.77 7.54809C14.5616 7.75647 14.4446 8.03908 14.4446 8.33377V11.6671C14.4446 11.9618 14.5616 12.2444 14.77 12.4528C14.9784 12.6611 15.261 12.7782 15.5557 12.7782H18.889C19.1837 12.7782 19.4663 12.6611 19.6747 12.4528C19.8831 12.2444 20.0001 11.9618 20.0001 11.6671V8.33377C20.0001 8.03908 19.8831 7.75647 19.6747 7.54809C19.4663 7.33972 19.1837 7.22266 18.889 7.22266H15.5557Z" fill="#2FA1D9"/>
<path fill-rule="evenodd" clip-rule="evenodd" d="M18.889 15.5554H15.5557V18.8888H18.889V15.5554ZM15.5557 14.4443C15.261 14.4443 14.9784 14.5614 14.77 14.7698C14.5616 14.9781 14.4446 15.2608 14.4446 15.5554V18.8888C14.4446 19.1835 14.5616 19.4661 14.77 19.6745C14.9784 19.8828 15.261 19.9999 15.5557 19.9999H18.889C19.1837 19.9999 19.4663 19.8828 19.6747 19.6745C19.8831 19.4661 20.0001 19.1835 20.0001 18.8888V15.5554C20.0001 15.2608 19.8831 14.9781 19.6747 14.7698C19.4663 14.5614 19.1837 14.4443 18.889 14.4443H15.5557Z" fill="#2FA1D9"/>
</svg>
