<svg width="10" height="9" viewBox="0 0 10 9" fill="none" xmlns="http://www.w3.org/2000/svg">
<path d="M10 1.06526C9.62561 1.24935 9.22834 1.36999 8.82154 1.42315C9.24868 1.1381 9.56877 0.692086 9.72313 0.166848C9.32025 0.43102 8.87966 0.617203 8.4203 0.717402C8.11111 0.352665 7.70196 0.111062 7.25625 0.0300269C6.81053 -0.0510078 6.35313 0.0330503 5.95491 0.269177C5.55669 0.505304 5.2399 0.880316 5.0536 1.33611C4.86731 1.7919 4.82192 2.30303 4.92447 2.79029C4.10867 2.74482 3.31063 2.50985 2.58211 2.10063C1.8536 1.69142 1.21091 1.11709 0.695735 0.414941C0.513311 0.761861 0.41743 1.15627 0.417917 1.55775C0.417522 1.93189 0.500627 2.30034 0.659837 2.63031C0.819048 2.96028 1.04943 3.24154 1.33047 3.44906C1.00471 3.43788 0.686092 3.34051 0.401239 3.16507V3.19305C0.401024 3.71793 0.564851 4.22672 0.864891 4.63297C1.16493 5.03923 1.58268 5.3179 2.04718 5.42166C1.87563 5.47444 1.69454 5.49925 1.50679 5.49925C1.37431 5.49925 1.24613 5.48711 1.1208 5.45914C1.25193 5.91065 1.50715 6.3055 1.85079 6.58848C2.19442 6.87145 2.6093 7.02842 3.03741 7.03743C2.17639 7.78202 1.08471 8.11972 0 7.97701C0.937612 8.64626 2.02969 9.00147 3.1451 9C6.91923 9 8.98165 5.5362 8.98165 2.53376C8.98165 2.43505 8.9807 2.33739 8.97689 2.23974C9.37876 1.91977 9.72519 1.52208 9.99952 1.06579" fill="#B9B9C1"/>
</svg>
