<svg width="22" height="22" viewBox="0 0 22 22" fill="none" xmlns="http://www.w3.org/2000/svg">
<path d="M19.4612 4.23079H15.2304C15.2305 1.89411 13.3363 0 10.9997 0C8.66304 0 6.76889 1.89411 6.76889 4.23079H2.53814C1.95386 4.23079 1.48047 4.70422 1.48047 5.28847C1.48047 5.87271 1.9539 6.34614 2.53814 6.34614H2.96121V19.25C2.96375 20.768 4.19321 21.9975 5.71122 22H16.2881C17.8061 21.9975 19.0356 20.768 19.0381 19.25V6.34614H19.4612C20.0455 6.34614 20.5189 5.87271 20.5189 5.28847C20.5189 4.70422 20.0455 4.23079 19.4612 4.23079ZM10.9997 2.11539C12.1678 2.11539 13.1151 3.06268 13.1151 4.23079H8.88428C8.88428 3.06264 9.83157 2.11539 10.9997 2.11539ZM16.9228 19.25C16.9228 19.6003 16.6384 19.8846 16.2881 19.8846H5.71122C5.36089 19.8846 5.07661 19.6003 5.07661 19.25V6.34614H16.9228V19.25Z" fill="#FF485A"/>
<path d="M8.67291 16.2885C8.08862 16.2885 7.61523 15.8151 7.61523 15.2308V11.0001C7.61523 10.4158 8.08866 9.94238 8.67291 9.94238C9.25716 9.94238 9.73059 10.4158 9.73059 11.0001V15.2308C9.73063 15.8151 9.2572 16.2885 8.67291 16.2885Z" fill="#FFBBC0"/>
<path d="M13.3272 16.2885C12.7429 16.2885 12.2695 15.8151 12.2695 15.2308V11.0001C12.2695 10.4158 12.743 9.94238 13.3272 9.94238C13.9115 9.94238 14.3849 10.4158 14.3849 11.0001V15.2308C14.3849 15.8151 13.9115 16.2885 13.3272 16.2885Z" fill="#FFBBC0"/>
</svg>
